<?xml version="1.0" encoding="utf-8"?>
<!-- Generator: Adobe Illustrator 16.0.3, SVG Export Plug-In . SVG Version: 6.00 Build 0)  -->
<!DOCTYPE svg PUBLIC "-//W3C//DTD SVG 1.1//EN" "http://www.w3.org/Graphics/SVG/1.1/DTD/svg11.dtd">
<svg version="1.1" id="Warstwa_1" xmlns="http://www.w3.org/2000/svg" xmlns:xlink="http://www.w3.org/1999/xlink" x="0px" y="0px"
	 width="35px" height="35px" viewBox="0 0 35 35" enable-background="new 0 0 35 35" xml:space="preserve">
<rect fill="#DB4437" width="35" height="35"/>
<rect x="1" y="1" fill="#FFFFFF" width="33" height="33"/>
<g>
	<path fill="#DB4437" d="M15.867,14.919l-1.027,1.016c-0.649-0.688-1.407-1.031-2.272-1.031c-0.754,0-1.386,0.25-1.895,0.75
		c-0.51,0.5-0.764,1.107-0.764,1.823c0,0.739,0.264,1.366,0.792,1.88s1.181,0.771,1.955,0.771c0.504,0,0.93-0.106,1.275-0.318
		c0.346-0.211,0.624-0.543,0.837-0.994H12.55v-1.37h3.854l0.011,0.323c0,0.67-0.174,1.305-0.521,1.906
		c-0.348,0.601-0.797,1.059-1.35,1.375c-0.552,0.315-1.199,0.474-1.942,0.474c-0.795,0-1.505-0.173-2.128-0.519
		s-1.116-0.838-1.479-1.477C8.632,18.89,8.45,18.2,8.45,17.461c0-1.014,0.335-1.896,1.006-2.646
		c0.795-0.892,1.829-1.338,3.104-1.338c0.667,0,1.29,0.123,1.87,0.37C14.919,14.055,15.398,14.412,15.867,14.919z"/>
	<path fill="#DB4437" d="M19.425,16.852v-1.953h1.303v1.953h1.947v1.302h-1.947v1.948h-1.303v-1.948h-1.947v-1.302H19.425z"/>
	<path fill="#DB4437" d="M24.368,13.669h2.182v7.662h-1.447v-6.292h-1.578L24.368,13.669z"/>
</g>
</svg>
