<?xml version="1.0" encoding="utf-8"?>
<!-- Generator: Adobe Illustrator 16.0.3, SVG Export Plug-In . SVG Version: 6.00 Build 0)  -->
<!DOCTYPE svg PUBLIC "-//W3C//DTD SVG 1.1//EN" "http://www.w3.org/Graphics/SVG/1.1/DTD/svg11.dtd">
<svg version="1.1" id="Warstwa_1" xmlns="http://www.w3.org/2000/svg" xmlns:xlink="http://www.w3.org/1999/xlink" x="0px" y="0px"
	 width="185.79px" height="70px" viewBox="-0.002 -6 185.79 70" enable-background="new -0.002 -6 185.79 70" xml:space="preserve">
<g>
	<g>
		<path fill="#FFFFFF" d="M96.897,2.116c-0.441,0-0.938,0-1.488,0.062v5.861c0.938,0.122,1.65,0.181,2.09,0.181
			c2.801,0,4.502-1.329,4.502-3.203C102,2.902,100.299,2.116,96.897,2.116 M97.885,8.706c-0.661,0-1.485-0.063-2.477-0.123v1.692
			c0,3.021,0.061,4.112,1.379,4.475v0.118c-1.101,0-1.977-0.059-2.586-0.059c-0.771,0-1.537,0.059-2.416,0.059V14.75
			c1.316-0.362,1.377-1.511,1.377-4.475V3.443c0-1.026-0.331-1.57-1.155-1.628V1.632c1.206,0,2.249,0,3.128,0h1.979
			c4.94,0,7.466,0.846,7.466,3.446C104.579,7.193,102.159,8.706,97.885,8.706z"/>
		<path fill="#FFFFFF" d="M110.625,4.35c-2.092,0-3.463,1.757-3.463,5.141c0,3.387,1.262,5.2,3.512,5.2
			c2.152,0,3.461-1.813,3.461-5.2C114.139,6.166,112.827,4.35,110.625,4.35 M110.564,15.053c-3.347,0-5.706-2.237-5.706-5.623
			c0-3.143,2.359-5.439,5.814-5.439c3.414,0,5.721,2.236,5.721,5.5C116.394,12.755,114.135,15.053,110.564,15.053z"/>
		<path fill="#FFFFFF" d="M119.581,14.81c-0.496,0-1.266,0-2.256,0.059V14.75c1.207-0.422,1.375-1.572,1.375-3.99V3.021
			c0-1.452-0.107-2.057-1.147-2.114V0.723c0.979-0.117,2.028-0.36,3.125-0.723c-0.056,0.965-0.105,2.236-0.105,3.929v6.467
			c0,2.782,0.05,3.933,1.312,4.354v0.118C121.006,14.81,120.233,14.81,119.581,14.81"/>
		<path fill="#FFFFFF" d="M127.161,15.113c-1.707,0-3.24-0.304-4.617-0.971l0.656-2.294h0.117c0.219,1.693,1.813,2.842,4.061,2.842
			c1.979,0,3.24-1.09,3.24-2.479c0-1.511-1.154-1.693-3.291-1.995c-2.75-0.362-4.127-1.15-4.127-3.084
			c0-1.813,1.816-3.203,4.78-3.203c1.54,0,2.914,0.241,3.901,0.666l-0.604,1.993h-0.106c-0.441-1.571-1.433-2.298-3.078-2.298
			c-1.816,0-3.021,1.029-3.021,2.298c0,1.271,1.042,1.632,2.963,1.814c2.914,0.304,4.451,0.847,4.451,2.842
			C132.485,13.601,130.618,15.113,127.161,15.113"/>
		<path fill="#FFFFFF" d="M143.196,14.81c-0.268,0-0.828,0.059-1.596,0.059c-2.139-3.806-3.186-5.86-4.176-5.86
			c-0.596,0-0.769,0.422-0.769,1.388c0,2.844,0.173,3.992,1.378,4.354v0.118c-0.883-0.059-1.642-0.059-2.304-0.059
			c-0.446,0-1.153,0-2.256,0.059V14.75c1.267-0.422,1.319-1.572,1.319-4.05V3.267c0-1.697,0-2.302-1.102-2.359V0.723
			c0.991-0.117,1.977-0.36,3.08-0.723c-0.063,0.965-0.117,2.236-0.117,3.929v4.777l2.479-2.18c0.931-0.785,1.476-1.328,1.476-1.754
			c0-0.238-0.155-0.361-0.545-0.482V4.17c0.656,0.061,1.317,0.061,1.979,0.061c0.817,0,1.592,0,2.303-0.061v0.12
			c-1.916,0.363-3.072,1.331-4.281,2.298L137.7,8.402c2.092,0,2.91,0.785,3.959,2.357c1.098,1.631,1.865,3.145,3.408,3.99v0.118
			C144.347,14.868,143.752,14.81,143.196,14.81"/>
		<path fill="#FFFFFF" d="M147.435,14.81c-0.498,0-1.271,0-2.256,0.059V14.75c1.266-0.422,1.373-1.632,1.373-4.414v-2.84
			c0-1.693-0.054-2.357-1.154-2.418V4.897c0.988-0.125,2.037-0.363,3.076-0.728c0,0.969-0.054,2.238-0.054,3.931v2.295
			c0,2.782,0.054,3.933,1.316,4.354v0.118C148.851,14.81,148.09,14.81,147.435,14.81 M147.435,2.842
			c-0.722,0-1.158-0.486-1.158-1.21c0-0.667,0.49-1.147,1.158-1.147c0.655,0,1.147,0.542,1.147,1.147
			C148.583,2.355,148.09,2.842,147.435,2.842z"/>
		<path fill="#FFFFFF" d="M156.213,4.35c-1.582,0-2.741,1.151-3.131,3.388h5.888C158.913,5.563,157.808,4.35,156.213,4.35
			 M156.271,15.113c-3.235,0-5.545-2.358-5.545-5.501c0-3.446,2.31-5.622,5.545-5.622c2.858,0,4.772,1.572,5.115,4.171h-8.353
			c-0.061,0.605-0.061,1.026-0.061,1.269c0,3.204,1.486,5.079,3.961,5.079c1.979,0,3.566-1.391,4.334-4.054l0.277,0.425
			C160.774,13.662,158.97,15.113,156.271,15.113z"/>
	</g>
	<g>
		<path fill="#FFFFFF" d="M97.749,47.016h-1.012c-0.395,0-0.787,0.062-1.293,0.062v2.259c0,1.829,0.057,2.93,0.168,3.294
			c0.166,0.791,1.012,0.914,2.813,0.914c3.035,0,4.673-1.221,4.673-3.295C103.098,47.867,101.295,47.016,97.749,47.016
			 M97.638,41.033c-0.563,0-1.296,0-2.193,0.06v5.435c0.507,0.062,0.787,0.062,0.843,0.062h1.352c2.982,0,4.5-0.975,4.5-2.871
			C102.138,41.826,100.62,41.033,97.638,41.033z M98.935,53.971c-0.787,0-2.312-0.059-4.504-0.059c-0.897,0-1.801,0-2.645,0.059
			v-0.183c1.296-0.245,1.352-1.466,1.352-4.453v-6.899c0-1.035-0.281-1.523-1.125-1.646v-0.184c1.407,0,2.364,0,2.868,0
			c1.012,0,2.193-0.063,3.488-0.063c4.11,0,6.188,0.918,6.188,3.055c0,1.707-1.411,2.745-4.162,3.051
			c3.488,0.307,5.287,1.465,5.287,3.539C105.683,52.689,103.432,53.971,98.935,53.971z"/>
		<path fill="#FFFFFF" d="M109.17,53.912c-0.563,0-1.295,0-2.307,0.059V53.85c1.295-0.43,1.35-1.646,1.35-4.453v-2.869
			c0-1.711-0.055-2.383-1.182-2.441v-0.184c1.068-0.121,2.078-0.364,3.207-0.73c-0.053,0.973-0.111,2.26-0.111,3.965v2.317
			c0,2.812,0.111,3.967,1.403,4.396v0.121C110.631,53.912,109.842,53.912,109.17,53.912 M109.11,41.826
			c-0.675,0-1.178-0.49-1.178-1.221c0-0.67,0.503-1.156,1.178-1.156c0.682,0,1.242,0.548,1.242,1.156
			C110.353,41.336,109.792,41.826,109.11,41.826z"/>
		<path fill="#FFFFFF" d="M120.477,47.747c-0.282,0-0.507,0-0.787,0c-3.206,0-4.896,1.22-4.896,3.233
			c0,1.586,0.904,2.625,2.42,2.625c2.477,0,3.264-1.832,3.264-5.188V47.747z M121.942,53.912h-0.68
			c-0.338-0.612-0.561-1.283-0.732-1.955c-0.783,1.402-2.191,2.258-3.936,2.258c-2.475,0-4.104-1.4-4.104-3.355
			c0-2.318,2.641-3.541,7.875-3.541h0.11c0-2.746-0.901-3.963-3.147-3.963c-1.916,0-3.324,1.098-3.6,2.744h-0.115l-0.619-2.076
			c1.351-0.73,2.926-1.1,4.67-1.1c1.459,0,2.588,0.307,3.486,0.979c1.071,0.793,1.296,1.892,1.296,3.603v2.744
			c0,2.259,0.394,3.356,1.351,3.603v0.119C123.179,53.971,122.56,53.912,121.942,53.912z"/>
		<path fill="#FFFFFF" d="M127,53.912c-0.506,0-1.291,0-2.308,0.059V53.85c1.297-0.43,1.407-1.586,1.407-4.088v-4.764l-1.407,0.979
			v-0.793l1.407-0.977v-2.016c0-1.648-0.055-2.256-1.182-2.318v-0.182c1.014-0.121,2.082-0.366,3.203-0.734
			c-0.053,0.916-0.109,2.076-0.109,3.48c0,0.549,0,0.063,0,0.549l1.354-1.1v0.795l-1.354,1.098v5.674
			c0,2.811,0.058,3.967,1.354,4.396v0.119C128.459,53.912,127.676,53.912,127,53.912"/>
		<path fill="#FFFFFF" d="M139.995,46.771l-3.764,7.506c-1.184,2.379-2.426,3.724-4.169,3.724c-0.224,0-0.446-0.062-0.673-0.123
			l0.844-2.258h0.109c0.229,0.487,0.563,0.733,1.184,0.733c1.066,0,1.969-0.978,1.969-2.199c0-0.549-0.225-1.221-0.559-2.076
			l-2.76-5.611c-0.956-1.895-1.574-2.929-2.303-3.174v-0.121c0.729,0.061,1.403,0.061,2.021,0.061c0.729,0,1.463,0,2.137-0.061
			v0.121c-0.562,0.122-0.786,0.365-0.786,0.67c0,0.307,0.227,0.854,0.618,1.588l3.207,6.041l2.308-5.003
			c0.502-0.975,0.731-1.708,0.731-2.136c0-0.672-0.336-0.977-1.128-1.16v-0.121c0.563,0.061,1.184,0.061,1.743,0.061
			c0.614,0,1.233,0,1.801-0.061v0.121C141.903,43.598,140.948,44.759,139.995,46.771"/>
		<path fill="#FFFFFF" d="M147.696,54.215c-1.738,0-3.318-0.303-4.723-0.975l0.674-2.319h0.117c0.225,1.708,1.855,2.869,4.162,2.869
			c2.021,0,3.316-1.101,3.316-2.504c0-1.524-1.24-1.708-3.375-2.013c-2.814-0.369-4.222-1.162-4.222-3.112
			c0-1.833,1.854-3.237,4.84-3.237c1.634,0,2.979,0.247,4.05,0.674l-0.617,2.017h-0.115c-0.445-1.591-1.516-2.321-3.15-2.321
			c-1.906,0-3.15,1.036-3.15,2.321c0,1.278,1.127,1.646,3.095,1.829c2.983,0.305,4.563,0.853,4.563,2.867
			C153.159,52.689,151.243,54.215,147.696,54.215"/>
		<path fill="#FFFFFF" d="M159.965,44.328h-2.026v4.52c0,3.293,0.224,4.695,1.574,5.002v0.121c-1.295-0.059-2.191-0.059-2.813-0.059
			c-0.671-0.432-0.729-1.223-0.729-2.505v-0.791c0-0.368,0-0.731,0-1.163l0.112-5.125h-1.631l0.055-0.366
			c1.576-0.425,2.529-1.524,3.433-3.354h0.11c-0.057,0.793-0.057,1.77-0.11,3.051h2.248v0.123L159.965,44.328z"/>
		<path fill="#FFFFFF" d="M167.052,43.355c-2.08,0-3.548,1.766-3.548,5.185c0,3.417,1.354,5.25,3.66,5.25
			c2.189,0,3.541-1.833,3.541-5.25C170.706,45.184,169.354,43.355,167.052,43.355 M167.052,54.152c-3.437,0-5.854-2.258-5.854-5.674
			c0-3.174,2.363-5.492,5.967-5.492c3.428,0,5.851,2.257,5.851,5.554C173.015,51.834,170.706,54.152,167.052,54.152z"/>
		<path fill="#FFFFFF" d="M183.872,53.912c-0.283,0-0.842,0.059-1.633,0.059c-2.25-3.845-3.262-5.921-4.273-5.921
			c-0.614,0-0.786,0.429-0.786,1.403c0,2.869,0.11,4.027,1.346,4.396v0.119c-0.84-0.058-1.629-0.058-2.305-0.058
			c-0.449,0-1.236,0-2.304,0.058V53.85c1.291-0.431,1.351-1.586,1.351-4.089v-7.506c0-1.713,0-2.319-1.183-2.383v-0.181
			c1.011-0.123,2.078-0.367,3.205-0.735c-0.053,0.979-0.11,2.261-0.11,3.967v4.823l2.532-2.197c0.951-0.791,1.515-1.343,1.515-1.77
			c0-0.243-0.168-0.366-0.621-0.488V43.17c0.731,0.061,1.41,0.061,2.084,0.061c0.845,0,1.636,0,2.363-0.061v0.121
			c-1.972,0.365-3.207,1.341-4.447,2.32l-2.412,1.83c2.136,0,3.033,0.793,4.109,2.381c1.116,1.646,1.903,3.172,3.483,4.025v0.12
			C185.052,53.971,184.437,53.912,183.872,53.912"/>
	</g>
	<g>
		<path fill="#FFFFFF" d="M97.562,21.602c-0.877,0-1.597,0-2.146,0.063v5.378c0.496,0,0.824,0,0.881,0c1.648,0,2.81,0,3.574-0.181
			c1.317-0.244,2.201-1.271,2.201-2.54C102.073,22.389,100.53,21.602,97.562,21.602 M104.221,34.297c-0.163,0-0.713,0-1.534,0.061
			c-0.89-2.112-1.164-3.867-1.881-5.018c-0.99-1.57-2.201-1.814-4.121-1.814h-0.334c-0.108,0-0.438,0.063-0.935,0.063v2.175
			c0,3.021,0.058,4.111,1.373,4.473v0.121c-1.094,0-1.979-0.061-2.586-0.061c-0.767,0-1.541,0.061-2.417,0.061v-0.121
			c1.32-0.36,1.371-1.512,1.371-4.473v-6.831c0-1.026-0.328-1.572-1.152-1.632v-0.182c0.658,0,1.873,0,3.798,0h2.583
			c4.075,0,6.276,0.849,6.276,3.144c0,1.873-1.766,3.145-5.01,3.205c2.145,0.241,3.412,1.027,4.186,2.72
			c0.882,2.058,1.101,3.688,2.254,3.931v0.239C105.322,34.357,104.72,34.297,104.221,34.297z"/>
		<path fill="#FFFFFF" d="M114.627,28.192c-0.277,0-0.498,0-0.776,0c-3.131,0-4.843,1.209-4.843,3.203
			c0,1.572,0.939,2.601,2.423,2.601c2.42,0,3.196-1.813,3.196-5.138V28.192z M116.058,34.297h-0.665
			c-0.325-0.604-0.553-1.271-0.716-1.934c-0.771,1.39-2.203,2.234-3.857,2.234c-2.413,0-4.015-1.39-4.015-3.324
			c0-2.296,2.595-3.504,7.703-3.504h0.119c0-2.723-0.942-3.928-3.084-3.928c-1.873,0-3.246,1.086-3.521,2.718h-0.112l-0.605-2.058
			c1.32-0.726,2.859-1.083,4.57-1.083c1.373,0,2.535,0.299,3.408,0.967c1.049,0.783,1.266,1.872,1.266,3.565v2.718
			c0,2.238,0.387,3.326,1.324,3.566v0.121C117.266,34.357,116.661,34.297,116.058,34.297z"/>
		<path fill="#FFFFFF" d="M124.42,23.899c-1.985,0-3.358,1.817-3.358,5.078c0,3.205,1.373,5.075,3.412,5.075
			c2.041,0,3.358-1.75,3.358-5.075C127.833,25.653,126.452,23.899,124.42,23.899 M129.209,34.297h-0.666
			c-0.323-0.544-0.547-1.209-0.711-1.873c-0.877,1.391-2.201,2.114-3.799,2.114c-2.973,0-5.229-2.417-5.229-5.742
			c0-3.143,2.258-5.377,5.339-5.377c1.768,0,3.141,1.026,3.689,2.659v-3.265c0-1.754,0-2.356-1.1-2.42v-0.181
			c0.938-0.061,1.926-0.363,3.081-0.726c-0.06,1.151-0.06,2.057-0.06,2.662v7.613c0,2.781,0.113,4.171,1.268,4.474v0.121
			C130.364,34.357,129.814,34.297,129.209,34.297z"/>
		<path fill="#FFFFFF" d="M133.723,34.297c-0.499,0-1.271,0-2.258,0.061v-0.121c1.266-0.422,1.375-1.633,1.375-4.413v-2.838
			c0-1.693-0.057-2.359-1.155-2.417v-0.182c0.985-0.123,2.038-0.366,3.084-0.728c0,0.967-0.052,2.235-0.052,3.931v2.295
			c0,2.783,0.052,3.931,1.375,4.353v0.121C135.153,34.297,134.385,34.297,133.723,34.297 M133.723,22.327
			c-0.715,0-1.161-0.482-1.161-1.208c0-0.662,0.496-1.149,1.161-1.149c0.662,0,1.154,0.544,1.154,1.149
			C134.877,21.845,134.385,22.327,133.723,22.327z"/>
		<path fill="#FFFFFF" d="M142.804,23.842c-2.089,0-3.47,1.75-3.47,5.136s1.269,5.197,3.521,5.197c2.152,0,3.475-1.812,3.475-5.197
			C146.331,25.653,145.008,23.842,142.804,23.842 M142.747,34.538c-3.354,0-5.662-2.235-5.662-5.62c0-3.145,2.308-5.441,5.771-5.441
			c3.412,0,5.732,2.24,5.732,5.501C148.588,32.244,146.331,34.538,142.747,34.538z"/>
	</g>
</g>
<g>
	<g>
		
			<linearGradient id="SVGID_1_" gradientUnits="userSpaceOnUse" x1="550.7915" y1="614.2041" x2="599.1528" y2="614.2041" gradientTransform="matrix(1 0 0 1 -518.1992 -570.1797)">
			<stop  offset="0" style="stop-color:#0170C9"/>
			<stop  offset="0.8011" style="stop-color:#FFFFFF"/>
		</linearGradient>
		<path fill="url(#SVGID_1_)" d="M80.953,33.593c-0.328,8.581-9.218,20.863-24.144,20.863c-14.999,0-23.743-12.282-24.217-20.863"/>
		<polygon fill="#FFFFFF" points="8.027,33.593 2.882,54.229 26.798,54.229 31.955,33.593 		"/>
	</g>
	
		<linearGradient id="SVGID_2_" gradientUnits="userSpaceOnUse" x1="550.5718" y1="585.834" x2="599.2681" y2="585.834" gradientTransform="matrix(1 0 0 1 -518.1992 -570.1797)">
		<stop  offset="0" style="stop-color:#0170C9"/>
		<stop  offset="0.067" style="stop-color:#2383D0"/>
		<stop  offset="0.1939" style="stop-color:#5CA3DC"/>
		<stop  offset="0.3209" style="stop-color:#8EBFE7"/>
		<stop  offset="0.4453" style="stop-color:#B7D6F0"/>
		<stop  offset="0.5664" style="stop-color:#D6E8F6"/>
		<stop  offset="0.6832" style="stop-color:#EDF5FB"/>
		<stop  offset="0.794" style="stop-color:#FAFCFE"/>
		<stop  offset="0.8925" style="stop-color:#FFFFFF"/>
	</linearGradient>
	<path fill="url(#SVGID_2_)" d="M66.732,10.805L69.438,0h-23.87l-3.903,15.639c-0.002,0.002-0.004-0.001-0.006,0
		c-5.615,4.514-9.105,10.725-9.287,15.66l48.697,0.011C81.07,23.759,76.231,14.267,66.732,10.805z"/>
	<path fill="#FFFFFF" d="M8.932,31.312C9.26,22.325,18.15,9.46,33.076,9.46c14.999,0,23.743,12.865,24.217,21.852"/>
</g>
</svg>
