<?xml version="1.0" encoding="utf-8"?>
<!-- Generator: Adobe Illustrator 16.0.3, SVG Export Plug-In . SVG Version: 6.00 Build 0)  -->
<!DOCTYPE svg PUBLIC "-//W3C//DTD SVG 1.1//EN" "http://www.w3.org/Graphics/SVG/1.1/DTD/svg11.dtd">
<svg version="1.1" id="Warstwa_1" xmlns="http://www.w3.org/2000/svg" xmlns:xlink="http://www.w3.org/1999/xlink" x="0px" y="0px"
	 width="1761.176px" height="1290.13px" viewBox="0 0 1761.176 1290.13" enable-background="new 0 0 1761.176 1290.13"
	 xml:space="preserve">
<g>
	<g>
		<linearGradient id="SVGID_1_" gradientUnits="userSpaceOnUse" x1="678.3159" y1="1030.8877" x2="1720.6973" y2="1030.8877">
			<stop  offset="0" style="stop-color:#0170C9"/>
			<stop  offset="0.8011" style="stop-color:#FFFFFF"/>
		</linearGradient>
		<path fill="url(#SVGID_1_)" d="M1720.697,791.411c-7.07,196.98-198.69,478.953-520.404,478.953
			c-323.293,0-511.771-281.973-521.977-478.953"/>
		<polygon fill-rule="evenodd" clip-rule="evenodd" fill="#FFFFFF" points="148.816,791.411 37.931,1265.173 553.412,1265.173 
			664.573,791.411 		"/>
	</g>
	<linearGradient id="SVGID_2_" gradientUnits="userSpaceOnUse" x1="673.5723" y1="379.583" x2="1723.2266" y2="379.583">
		<stop  offset="0" style="stop-color:#0170C9"/>
		<stop  offset="0.067" style="stop-color:#2383D0"/>
		<stop  offset="0.1939" style="stop-color:#5CA3DC"/>
		<stop  offset="0.3209" style="stop-color:#8EBFE7"/>
		<stop  offset="0.4453" style="stop-color:#B7D6F0"/>
		<stop  offset="0.5664" style="stop-color:#D6E8F6"/>
		<stop  offset="0.6832" style="stop-color:#EDF5FB"/>
		<stop  offset="0.794" style="stop-color:#FAFCFE"/>
		<stop  offset="0.8925" style="stop-color:#FFFFFF"/>
	</linearGradient>
	<path fill="url(#SVGID_2_)" d="M1414.183,268.26l58.324-248.046H958.01l-84.124,359.019c-0.047,0.039-0.093-0.047-0.139-0.008
		C752.711,482.826,677.491,625.412,673.572,738.727l1049.654,0.227C1723.227,565.648,1618.908,347.748,1414.183,268.26z"/>
	<path fill="#FFFFFF" d="M168.331,739.032c7.07-206.314,198.69-501.646,520.405-501.646c323.293,0,511.769,295.332,521.976,501.646"
		/>
</g>
</svg>
