<?xml version="1.0" encoding="utf-8"?>
<!-- Generator: Adobe Illustrator 16.0.3, SVG Export Plug-In . SVG Version: 6.00 Build 0)  -->
<!DOCTYPE svg PUBLIC "-//W3C//DTD SVG 1.1//EN" "http://www.w3.org/Graphics/SVG/1.1/DTD/svg11.dtd">
<svg version="1.1" id="Warstwa_1" xmlns="http://www.w3.org/2000/svg" xmlns:xlink="http://www.w3.org/1999/xlink" x="0px" y="0px"
	 width="186.592px" height="219.454px" viewBox="0 0 186.592 219.454" enable-background="new 0 0 186.592 219.454"
	 xml:space="preserve">
<g>
	<g>
		<linearGradient id="SVGID_1_" gradientUnits="userSpaceOnUse" x1="0" y1="4.9834" x2="186.5962" y2="4.9834">
			<stop  offset="0" style="stop-color:#E61E26"/>
			<stop  offset="1" style="stop-color:#9F1D21"/>
		</linearGradient>
		<rect fill="url(#SVGID_1_)" width="186.596" height="9.966"/>
		<linearGradient id="SVGID_2_" gradientUnits="userSpaceOnUse" x1="9.765625e-004" y1="156.3291" x2="186.5923" y2="156.3291">
			<stop  offset="0" style="stop-color:#E61E26"/>
			<stop  offset="1" style="stop-color:#9F1D21"/>
		</linearGradient>
		<polygon fill="url(#SVGID_2_)" points="0.001,93.204 0.001,181.058 151.542,181.058 186.592,219.454 186.592,181.058 
			186.592,93.204 		"/>
		<rect x="0.001" y="10.233" fill="#FFFFFF" width="186.591" height="82.971"/>
	</g>
	<g>
		<linearGradient id="SVGID_3_" gradientUnits="userSpaceOnUse" x1="90.4087" y1="49.5" x2="124.9849" y2="49.5">
			<stop  offset="0" style="stop-color:#E61E26"/>
			<stop  offset="1" style="stop-color:#9F1D21"/>
		</linearGradient>
		<path fill="url(#SVGID_3_)" d="M90.409,55.156c0,9.532,7.755,17.288,17.288,17.288s17.288-7.755,17.288-17.288
			s-7.755-17.288-17.288-17.288c-2.704,0-5.253,0.642-7.535,1.752V26.557h-9.456L90.409,55.156z M107.697,65.296
			c-5.59,0-10.14-4.548-10.14-10.14s4.549-10.14,10.14-10.14c5.591,0,10.14,4.548,10.14,10.14S113.288,65.296,107.697,65.296z"/>
	</g>
	<g>
		<linearGradient id="SVGID_4_" gradientUnits="userSpaceOnUse" x1="144.5396" y1="59.084" x2="179.1157" y2="59.084">
			<stop  offset="0" style="stop-color:#E61E26"/>
			<stop  offset="1" style="stop-color:#9F1D21"/>
		</linearGradient>
		<path fill="url(#SVGID_4_)" d="M144.837,82.027h9.455V68.964c2.282,1.111,4.831,1.752,7.535,1.752
			c9.533,0,17.288-7.755,17.288-17.288c0-9.532-7.755-17.288-17.288-17.288s-17.288,7.755-17.288,17.288L144.837,82.027z
			 M171.967,53.428c0,5.592-4.549,10.14-10.14,10.14c-5.59,0-10.14-4.548-10.14-10.14c0-5.591,4.55-10.14,10.14-10.14
			C167.418,43.288,171.967,47.836,171.967,53.428z"/>
	</g>
	<linearGradient id="SVGID_5_" gradientUnits="userSpaceOnUse" x1="128.5171" y1="55.3813" x2="140.9878" y2="55.3813">
		<stop  offset="0" style="stop-color:#E61E26"/>
		<stop  offset="1" style="stop-color:#9F1D21"/>
	</linearGradient>
	<path fill="url(#SVGID_5_)" d="M137.878,61.814V39.894h-9.361v21.921c0,5.835,2.93,9.055,12.471,9.055v-7.301
		C139.51,63.568,137.878,62.954,137.878,61.814z"/>
	<linearGradient id="SVGID_6_" gradientUnits="userSpaceOnUse" x1="128.4048" y1="31.7793" x2="137.9888" y2="31.7793">
		<stop  offset="0" style="stop-color:#E61E26"/>
		<stop  offset="1" style="stop-color:#9F1D21"/>
	</linearGradient>
	<circle fill="url(#SVGID_6_)" cx="133.197" cy="31.779" r="4.792"/>
</g>
</svg>
