<?xml version="1.0" encoding="utf-8"?>
<!-- Generator: Adobe Illustrator 16.0.3, SVG Export Plug-In . SVG Version: 6.00 Build 0)  -->
<!DOCTYPE svg PUBLIC "-//W3C//DTD SVG 1.1//EN" "http://www.w3.org/Graphics/SVG/1.1/DTD/svg11.dtd">
<svg version="1.1" id="Warstwa_1" xmlns="http://www.w3.org/2000/svg" xmlns:xlink="http://www.w3.org/1999/xlink" x="0px" y="0px"
	 width="190.667px" height="200px" viewBox="0 0 190.667 200" enable-background="new 0 0 190.667 200" xml:space="preserve">
<g>
	<path fill="#FFFFFF" d="M127.281,128.506c13.754-13.4,22.318-32.103,22.318-52.777c0-40.636-33.043-73.703-73.691-73.703
		c-40.636,0-73.711,33.067-73.711,73.703c0,40.637,33.076,73.711,73.711,73.711c16.035,0,30.875-5.163,42.981-13.89l60.533,60.518
		l7.723-7.717L127.281,128.506z M13.115,75.729c0-34.624,28.172-62.788,62.792-62.788c34.631,0,62.779,28.164,62.779,62.788
		c0,34.62-28.148,62.785-62.779,62.785C41.287,138.514,13.115,110.349,13.115,75.729z"/>
</g>
<g>
</g>
<g>
</g>
<g>
</g>
<g>
</g>
<g>
</g>
<g>
</g>
<g>
</g>
<g>
</g>
<g>
</g>
<g>
</g>
<g>
</g>
<g>
</g>
<g>
</g>
<g>
</g>
<g>
</g>
</svg>
