<?xml version="1.0" encoding="utf-8"?>
<!-- Generator: Adobe Illustrator 16.0.3, SVG Export Plug-In . SVG Version: 6.00 Build 0)  -->
<!DOCTYPE svg PUBLIC "-//W3C//DTD SVG 1.1//EN" "http://www.w3.org/Graphics/SVG/1.1/DTD/svg11.dtd">
<svg version="1.1" id="Warstwa_1" xmlns="http://www.w3.org/2000/svg" xmlns:xlink="http://www.w3.org/1999/xlink" x="0px" y="0px"
	 width="232.5px" height="20.813px" viewBox="0 0 232.5 20.813" enable-background="new 0 0 232.5 20.813" xml:space="preserve">
<g>
	<path fill-rule="evenodd" clip-rule="evenodd" fill="#FFFFFF" d="M6.896,2.993c-0.413,0-0.881,0-1.399,0.063v6.06
		c0.882,0.125,1.554,0.187,1.965,0.187c2.637,0,4.237-1.374,4.237-3.311C11.698,3.805,10.098,2.993,6.896,2.993 M7.825,9.806
		c-0.62,0-1.398-0.065-2.328-0.127v1.751c0,3.122,0.057,4.249,1.297,4.624v0.124c-1.036,0-1.86-0.062-2.433-0.062
		c-0.726,0-1.446,0.062-2.272,0.062v-0.124c1.238-0.375,1.295-1.562,1.295-4.624V4.366c0-1.061-0.313-1.624-1.088-1.685v-0.19
		c1.137,0,2.117,0,2.944,0h1.862c4.646,0,7.023,0.876,7.023,3.563C14.125,8.243,11.848,9.806,7.825,9.806z"/>
	<path fill-rule="evenodd" clip-rule="evenodd" fill="#FFFFFF" d="M19.813,5.303c-1.968,0-3.255,1.816-3.255,5.313
		c0,3.502,1.186,5.378,3.302,5.378c2.026,0,3.256-1.876,3.256-5.378C23.118,7.181,21.886,5.303,19.813,5.303 M19.757,16.367
		c-3.148,0-5.369-2.314-5.369-5.813c0-3.249,2.22-5.623,5.471-5.623c3.211,0,5.382,2.312,5.382,5.684
		C25.242,13.991,23.116,16.367,19.757,16.367z"/>
	<path fill-rule="evenodd" clip-rule="evenodd" fill="#FFFFFF" d="M28.237,16.117c-0.465,0-1.189,0-2.121,0.062v-0.124
		c1.138-0.437,1.296-1.625,1.296-4.127V3.931c0-1.503-0.104-2.126-1.082-2.189V1.553c0.924-0.121,1.906-0.373,2.939-0.747
		c-0.052,0.998-0.1,2.312-0.1,4.061v6.687c0,2.875,0.048,4.064,1.236,4.501v0.124C29.583,16.117,28.853,16.117,28.237,16.117"/>
	<path fill-rule="evenodd" clip-rule="evenodd" fill="#FFFFFF" d="M35.37,16.43c-1.606,0-3.048-0.313-4.343-1.004l0.62-2.371h0.109
		c0.204,1.75,1.703,2.938,3.82,2.938c1.863,0,3.047-1.127,3.047-2.566c0-1.561-1.085-1.748-3.097-2.06
		c-2.586-0.376-3.88-1.189-3.88-3.189c0-1.874,1.708-3.312,4.498-3.312c1.448,0,2.739,0.25,3.67,0.688l-0.567,2.063h-0.105
		c-0.413-1.624-1.345-2.376-2.893-2.376c-1.709,0-2.845,1.063-2.845,2.376c0,1.314,0.982,1.687,2.792,1.874
		c2.741,0.315,4.185,0.875,4.185,2.939C40.38,14.866,38.623,16.43,35.37,16.43"/>
	<path fill-rule="evenodd" clip-rule="evenodd" fill="#FFFFFF" d="M50.458,16.117c-0.254,0-0.78,0.062-1.5,0.062
		c-2.015-3.937-2.997-6.062-3.932-6.062c-0.561,0-0.719,0.438-0.719,1.437c0,2.939,0.158,4.126,1.294,4.501v0.124
		c-0.831-0.062-1.545-0.062-2.167-0.062c-0.419,0-1.088,0-2.123,0.062v-0.124c1.19-0.437,1.24-1.625,1.24-4.188V4.183
		c0-1.755,0-2.378-1.035-2.441V1.553c0.934-0.121,1.858-0.373,2.898-0.747c-0.057,0.998-0.107,2.312-0.107,4.061v4.939l2.33-2.253
		c0.875-0.812,1.389-1.375,1.389-1.813c0-0.247-0.149-0.375-0.514-0.499V5.116c0.618,0.063,1.242,0.063,1.863,0.063
		c0.769,0,1.495,0,2.167-0.063v0.125c-1.807,0.376-2.891,1.375-4.03,2.376l-2.226,1.874c1.97,0,2.739,0.812,3.726,2.437
		c1.033,1.688,1.755,3.253,3.206,4.127v0.124C51.543,16.178,50.98,16.117,50.458,16.117"/>
	<path fill-rule="evenodd" clip-rule="evenodd" fill="#FFFFFF" d="M54.445,16.117c-0.468,0-1.194,0-2.122,0.062v-0.124
		c1.19-0.437,1.292-1.687,1.292-4.563V8.555c0-1.751-0.051-2.438-1.085-2.5V5.868c0.93-0.128,1.915-0.375,2.894-0.752
		c0,1.001-0.052,2.314-0.052,4.064v2.373c0,2.875,0.052,4.064,1.242,4.501v0.124C55.779,16.117,55.065,16.117,54.445,16.117
		 M54.445,3.744c-0.675,0-1.087-0.503-1.087-1.252c0-0.688,0.46-1.186,1.087-1.186c0.621,0,1.08,0.56,1.08,1.186
		C55.525,3.241,55.065,3.744,54.445,3.744z"/>
	<path fill-rule="evenodd" clip-rule="evenodd" fill="#FFFFFF" d="M62.708,5.303c-1.492,0-2.581,1.191-2.947,3.502h5.538
		C65.246,6.556,64.208,5.303,62.708,5.303 M62.762,16.43c-3.047,0-5.221-2.439-5.221-5.688c0-3.561,2.174-5.811,5.221-5.811
		c2.688,0,4.49,1.625,4.81,4.31h-7.857c-0.059,0.625-0.059,1.061-0.059,1.313c0,3.311,1.399,5.25,3.726,5.25
		c1.863,0,3.357-1.437,4.082-4.19l0.258,0.44C66.998,14.928,65.299,16.43,62.762,16.43z"/>
</g>
<g>
	<path fill-rule="evenodd" clip-rule="evenodd" fill="#FFFFFF" d="M143.599,9.209h-0.998c-0.39,0-0.775,0.061-1.274,0.061v2.219
		c0,1.798,0.055,2.878,0.164,3.239c0.164,0.777,0.998,0.896,2.775,0.896c2.993,0,4.606-1.197,4.606-3.236
		C148.873,10.049,147.092,9.209,143.599,9.209 M143.49,3.332c-0.557,0-1.278,0-2.163,0.059v5.339
		c0.499,0.061,0.772,0.061,0.83,0.061h1.333c2.939,0,4.437-0.958,4.437-2.821C147.926,4.111,146.429,3.332,143.49,3.332z
		 M144.765,16.045c-0.776,0-2.276-0.059-4.439-0.059c-0.887,0-1.777,0-2.607,0.059v-0.18c1.276-0.241,1.332-1.438,1.332-4.376V4.71
		c0-1.021-0.28-1.498-1.106-1.618V2.911c1.387,0,2.327,0,2.826,0c0.998,0,2.163-0.06,3.441-0.06c4.053,0,6.1,0.9,6.1,2.999
		c0,1.68-1.391,2.702-4.104,2.999c3.441,0.302,5.212,1.44,5.212,3.479C151.418,14.788,149.201,16.045,144.765,16.045z"/>
	<path fill-rule="evenodd" clip-rule="evenodd" fill="#FFFFFF" d="M154.86,15.987c-0.558,0-1.274,0-2.276,0.059v-0.12
		c1.278-0.42,1.333-1.618,1.333-4.376V8.729c0-1.68-0.055-2.34-1.165-2.399V6.15c1.056-0.118,2.05-0.359,3.164-0.718
		c-0.055,0.957-0.112,2.22-0.112,3.896v2.278c0,2.76,0.112,3.898,1.387,4.318v0.12C156.302,15.987,155.523,15.987,154.86,15.987
		 M154.801,4.111c-0.666,0-1.165-0.482-1.165-1.199c0-0.66,0.499-1.139,1.165-1.139c0.67,0,1.224,0.539,1.224,1.139
		C156.025,3.629,155.471,4.111,154.801,4.111z"/>
	<path fill-rule="evenodd" clip-rule="evenodd" fill="#FFFFFF" d="M166.01,9.93c-0.279,0-0.502,0-0.778,0
		c-3.161,0-4.826,1.198-4.826,3.18c0,1.558,0.893,2.58,2.386,2.58c2.44,0,3.219-1.803,3.219-5.102V9.93z M167.453,15.987h-0.67
		c-0.331-0.6-0.55-1.259-0.721-1.92c-0.775,1.38-2.163,2.22-3.879,2.22c-2.439,0-4.05-1.379-4.05-3.298
		c0-2.279,2.607-3.479,7.768-3.479h0.109c0-2.7-0.892-3.896-3.105-3.896c-1.891,0-3.277,1.077-3.548,2.698h-0.116l-0.608-2.041
		c1.329-0.719,2.885-1.08,4.604-1.08c1.438,0,2.553,0.301,3.438,0.959c1.057,0.781,1.278,1.859,1.278,3.539v2.7
		c0,2.22,0.39,3.301,1.329,3.537v0.12C168.673,16.045,168.061,15.987,167.453,15.987z"/>
	<path fill-rule="evenodd" clip-rule="evenodd" fill="#FFFFFF" d="M172.442,15.987c-0.498,0-1.274,0-2.275,0.059v-0.12
		c1.281-0.42,1.388-1.558,1.388-4.015V7.229l-1.388,0.96V7.41l1.388-0.959V4.47c0-1.619-0.055-2.217-1.162-2.278V2.013
		c0.998-0.119,2.05-0.361,3.157-0.721c-0.055,0.9-0.109,2.04-0.109,3.42c0,0.54,0,0.063,0,0.54l1.333-1.081v0.782l-1.333,1.08v5.575
		c0,2.76,0.055,3.898,1.333,4.318v0.12C173.881,15.987,173.109,15.987,172.442,15.987"/>
	<path fill-rule="evenodd" clip-rule="evenodd" fill="#FFFFFF" d="M185.254,8.969l-3.712,7.377c-1.165,2.339-2.389,3.66-4.107,3.66
		c-0.219,0-0.444-0.061-0.666-0.12l0.834-2.221h0.109c0.222,0.481,0.553,0.721,1.165,0.721c1.053,0,1.941-0.96,1.941-2.16
		c0-0.536-0.223-1.199-0.551-2.04l-2.724-5.517c-0.943-1.86-1.555-2.877-2.27-3.118V5.433c0.715,0.059,1.385,0.059,1.993,0.059
		c0.721,0,1.441,0,2.104-0.059v0.119c-0.55,0.121-0.772,0.359-0.772,0.659c0,0.301,0.223,0.84,0.612,1.561l3.161,5.935l2.272-4.916
		c0.499-0.958,0.725-1.68,0.725-2.1c0-0.658-0.332-0.958-1.114-1.139V5.433c0.557,0.059,1.169,0.059,1.719,0.059
		c0.608,0,1.217,0,1.777-0.059v0.119C187.137,5.85,186.198,6.992,185.254,8.969"/>
	<path fill-rule="evenodd" clip-rule="evenodd" fill="#FFFFFF" d="M192.851,16.287c-1.716,0-3.271-0.3-4.658-0.959l0.667-2.279
		h0.112c0.223,1.68,1.828,2.819,4.101,2.819c2,0,3.274-1.08,3.274-2.46c0-1.497-1.22-1.679-3.329-1.976
		c-2.771-0.363-4.158-1.143-4.158-3.062c0-1.801,1.828-3.179,4.771-3.179c1.609,0,2.938,0.242,3.991,0.659l-0.604,1.982h-0.116
		c-0.441-1.561-1.493-2.28-3.106-2.28c-1.883,0-3.106,1.018-3.106,2.28c0,1.258,1.11,1.617,3.048,1.798
		c2.946,0.3,4.498,0.84,4.498,2.818C198.234,14.788,196.347,16.287,192.851,16.287"/>
	<path fill-rule="evenodd" clip-rule="evenodd" fill="#FFFFFF" d="M204.948,6.569h-1.998v4.439c0,3.24,0.221,4.617,1.551,4.917v0.12
		c-1.275-0.059-2.164-0.059-2.774-0.059c-0.664-0.422-0.719-1.199-0.719-2.46v-0.778c0-0.36,0-0.719,0-1.142l0.109-5.038h-1.606
		l0.052-0.359c1.554-0.418,2.494-1.499,3.387-3.298h0.109c-0.055,0.777-0.055,1.739-0.109,2.998h2.213v0.122L204.948,6.569z"/>
	<path fill-rule="evenodd" clip-rule="evenodd" fill="#FFFFFF" d="M211.937,5.613c-2.053,0-3.496,1.736-3.496,5.096
		c0,3.357,1.334,5.159,3.605,5.159c2.16,0,3.494-1.801,3.494-5.159C215.54,7.41,214.206,5.613,211.937,5.613 M211.937,16.226
		c-3.387,0-5.775-2.218-5.775-5.577c0-3.12,2.334-5.398,5.885-5.398c3.381,0,5.77,2.218,5.77,5.458
		C217.815,13.947,215.54,16.226,211.937,16.226z"/>
	<path fill-rule="evenodd" clip-rule="evenodd" fill="#FFFFFF" d="M228.522,15.987c-0.277,0-0.83,0.059-1.609,0.059
		c-2.223-3.778-3.213-5.817-4.215-5.817c-0.607,0-0.775,0.421-0.775,1.379c0,2.82,0.105,3.958,1.326,4.318v0.12
		c-0.826-0.059-1.609-0.059-2.273-0.059c-0.443,0-1.219,0-2.271,0.059v-0.12c1.275-0.42,1.332-1.558,1.332-4.015V4.532
		c0-1.682,0-2.28-1.164-2.34V2.013c0.998-0.119,2.049-0.361,3.156-0.721c-0.047,0.961-0.105,2.221-0.105,3.899V9.93l2.494-2.159
		c0.941-0.779,1.498-1.321,1.498-1.739c0-0.241-0.172-0.36-0.611-0.481V5.433c0.721,0.059,1.387,0.059,2.049,0.059
		c0.834,0,1.613,0,2.334-0.059v0.119c-1.939,0.359-3.164,1.317-4.383,2.28l-2.383,1.798c2.105,0,2.994,0.78,4.053,2.338
		c1.104,1.62,1.877,3.12,3.438,3.957v0.12C229.687,16.045,229.079,15.987,228.522,15.987"/>
</g>
<g>
	<path fill-rule="evenodd" clip-rule="evenodd" fill="#FFFFFF" d="M81.139,3.352c-0.859,0-1.565,0-2.102,0.063v5.385
		c0.487,0,0.807,0,0.861,0c1.616,0,2.754,0,3.503-0.181c1.292-0.243,2.156-1.272,2.156-2.542C85.558,4.14,84.049,3.352,81.139,3.352
		 M87.664,16.062c-0.161,0-0.697,0-1.504,0.059c-0.868-2.116-1.139-3.872-1.842-5.022c-0.97-1.573-2.158-1.815-4.038-1.815h-0.326
		c-0.109,0-0.429,0.062-0.916,0.062v2.176c0,3.025,0.055,4.117,1.347,4.479v0.12c-1.073,0-1.939-0.059-2.537-0.059
		c-0.748,0-1.509,0.059-2.368,0.059V16c1.295-0.362,1.344-1.514,1.344-4.479V4.685c0-1.028-0.321-1.574-1.13-1.634V2.87
		c0.646,0,1.836,0,3.723,0h2.533c3.992,0,6.148,0.848,6.148,3.146c0,1.876-1.729,3.148-4.907,3.207
		c2.102,0.243,3.34,1.03,4.099,2.725c0.863,2.057,1.077,3.69,2.208,3.934v0.239C88.743,16.121,88.152,16.062,87.664,16.062z"/>
	<path fill-rule="evenodd" clip-rule="evenodd" fill="#FFFFFF" d="M97.861,9.95c-0.271,0-0.489,0-0.763,0
		c-3.065,0-4.741,1.21-4.741,3.206c0,1.574,0.919,2.603,2.373,2.603c2.368,0,3.131-1.815,3.131-5.143V9.95z M99.265,16.062h-0.652
		c-0.319-0.606-0.54-1.272-0.702-1.938c-0.754,1.391-2.16,2.24-3.78,2.24c-2.364,0-3.935-1.393-3.935-3.33
		c0-2.298,2.542-3.509,7.551-3.509h0.114c0-2.725-0.923-3.932-3.021-3.932c-1.835,0-3.183,1.089-3.451,2.721h-0.107l-0.593-2.058
		c1.293-0.726,2.8-1.086,4.477-1.086c1.345,0,2.482,0.3,3.34,0.968c1.027,0.786,1.241,1.875,1.241,3.57v2.721
		c0,2.242,0.377,3.329,1.295,3.571v0.12C100.446,16.121,99.855,16.062,99.265,16.062z"/>
	<path fill-rule="evenodd" clip-rule="evenodd" fill="#FFFFFF" d="M107.457,5.652c-1.946,0-3.291,1.819-3.291,5.084
		c0,3.207,1.345,5.08,3.344,5.08c2.001,0,3.291-1.751,3.291-5.08C110.8,7.409,109.449,5.652,107.457,5.652 M112.149,16.062h-0.652
		c-0.318-0.547-0.533-1.209-0.696-1.876c-0.859,1.391-2.156,2.115-3.72,2.115c-2.915,0-5.129-2.419-5.129-5.748
		c0-3.145,2.214-5.383,5.235-5.383c1.73,0,3.073,1.028,3.613,2.663V4.564c0-1.756,0-2.36-1.074-2.422V1.961
		c0.916-0.06,1.887-0.364,3.018-0.727c-0.059,1.153-0.059,2.059-0.059,2.665v7.622c0,2.784,0.109,4.175,1.242,4.479v0.12
		C113.284,16.121,112.744,16.062,112.149,16.062z"/>
	<path fill-rule="evenodd" clip-rule="evenodd" fill="#FFFFFF" d="M116.573,16.062c-0.488,0-1.242,0-2.213,0.059V16
		c1.239-0.424,1.349-1.635,1.349-4.418V8.741c0-1.694-0.055-2.362-1.133-2.42V6.138c0.97-0.122,1.997-0.366,3.021-0.727
		c0,0.967-0.048,2.237-0.048,3.934v2.297c0,2.786,0.048,3.934,1.347,4.358v0.12C117.974,16.062,117.222,16.062,116.573,16.062
		 M116.573,4.079c-0.702,0-1.137-0.484-1.137-1.209c0-0.665,0.487-1.151,1.137-1.151s1.133,0.545,1.133,1.151
		C117.706,3.595,117.222,4.079,116.573,4.079z"/>
	<path fill-rule="evenodd" clip-rule="evenodd" fill="#FFFFFF" d="M125.471,5.594c-2.047,0-3.398,1.752-3.398,5.143
		c0,3.388,1.241,5.203,3.452,5.203c2.104,0,3.401-1.814,3.401-5.203C128.926,7.409,127.628,5.594,125.471,5.594 M125.416,16.301
		c-3.288,0-5.55-2.236-5.55-5.625c0-3.147,2.262-5.448,5.659-5.448c3.342,0,5.614,2.242,5.614,5.507
		C131.139,14.005,128.926,16.301,125.416,16.301z"/>
</g>
<g>
</g>
<g>
</g>
<g>
</g>
<g>
</g>
<g>
</g>
<g>
</g>
<g>
</g>
<g>
</g>
<g>
</g>
<g>
</g>
<g>
</g>
<g>
</g>
<g>
</g>
<g>
</g>
<g>
</g>
</svg>
