<?xml version="1.0" encoding="utf-8"?>
<!-- Generator: Adobe Illustrator 16.0.3, SVG Export Plug-In . SVG Version: 6.00 Build 0)  -->
<!DOCTYPE svg PUBLIC "-//W3C//DTD SVG 1.1//EN" "http://www.w3.org/Graphics/SVG/1.1/DTD/svg11.dtd">
<svg version="1.1" id="Warstwa_1" xmlns="http://www.w3.org/2000/svg" xmlns:xlink="http://www.w3.org/1999/xlink" x="0px" y="0px"
	 width="200px" height="200px" viewBox="0 0 200 200" enable-background="new 0 0 200 200" xml:space="preserve">
<path fill="#FFFFFF" d="M185.254,97.902c0,48.241-39.11,87.349-87.351,87.349c-48.242,0-87.351-39.107-87.351-87.349
	c0-48.244,39.109-87.351,87.351-87.351C146.144,10.552,185.254,49.658,185.254,97.902z"/>
<g>
	<path fill="none" d="M173.201,96.766c-0.617-40.897-34.388-74.171-75.272-74.171c-0.387,0-0.776,0.003-1.163,0.007
		c-20.113,0.303-38.904,8.422-52.911,22.858C29.847,59.897,22.298,78.925,22.604,99.036c0.616,40.899,34.384,74.173,75.272,74.173
		c0.385,0,0.774-0.002,1.16-0.009C140.557,172.571,173.826,138.286,173.201,96.766z"/>
	<path fill="#075AA1" d="M199.999,199.999l-16.768-54.16c8.231-14.596,12.828-31.484,12.558-49.413
		c-0.389-25.887-10.764-50.141-29.214-68.297C147.788,9.64,122.849-0.383,96.426,0.012C70.279,0.407,45.851,10.96,27.641,29.728
		C9.431,48.497-0.381,73.232,0.012,99.377c0.391,25.885,10.768,50.142,29.215,68.298c18.431,18.138,42.812,28.128,68.648,28.128
		c0.498,0,1.003-0.006,1.504-0.014c18.264-0.275,35.297-5.567,49.814-14.534L199.999,199.999z M99.036,173.2
		c-0.386,0.007-0.775,0.009-1.16,0.009c-40.888,0-74.656-33.273-75.272-74.173c-0.305-20.111,7.243-39.139,21.252-53.576
		c14.006-14.437,32.797-22.555,52.911-22.858c0.387-0.004,0.776-0.007,1.163-0.007c40.884,0,74.655,33.274,75.272,74.171
		C173.826,138.286,140.557,172.571,99.036,173.2z"/>
</g>
<path fill="#075AA1" d="M79.706,60.503c0.317-0.316,0.83-0.316,1.147,0l53.228,38.423c0.316,0.316,0.316,0.83,0,1.146
	l-53.228,38.423c-0.317,0.317-0.83,0.317-1.147,0"/>
</svg>
