<?xml version="1.0" encoding="utf-8"?>
<!-- Generator: Adobe Illustrator 16.0.3, SVG Export Plug-In . SVG Version: 6.00 Build 0)  -->
<!DOCTYPE svg PUBLIC "-//W3C//DTD SVG 1.1//EN" "http://www.w3.org/Graphics/SVG/1.1/DTD/svg11.dtd">
<svg version="1.1" id="Warstwa_1" xmlns="http://www.w3.org/2000/svg" xmlns:xlink="http://www.w3.org/1999/xlink" x="0px" y="0px"
	 width="35px" height="35px" viewBox="0 0 35 35" enable-background="new 0 0 35 35" xml:space="preserve">
<rect fill="#3B5998" width="35" height="35"/>
<rect x="1" y="1" fill="#FFFFFF" width="33" height="33"/>
<g>
	<path fill="#3B5998" d="M11.618,10.798c0-1.049,0.1-1.798,1.608-1.798H14V6h-1.982C8.146,6,7,6.872,7,10.154V13H4v4h3v12h4V17
		h3.837l0.427-4h-3.649L11.618,10.798z"/>
	<g>
		<path fill="#3B5998" d="M16.085,19.763L15.5,20.28c-0.206-0.286-0.416-0.43-0.629-0.43c-0.104,0-0.189,0.028-0.255,0.084
			c-0.066,0.056-0.1,0.118-0.1,0.188c0,0.07,0.023,0.136,0.071,0.198c0.063,0.083,0.258,0.261,0.58,0.534
			c0.303,0.253,0.485,0.412,0.55,0.479c0.16,0.162,0.274,0.316,0.342,0.465c0.066,0.148,0.101,0.31,0.101,0.485
			c0,0.341-0.118,0.623-0.354,0.845c-0.235,0.223-0.543,0.334-0.923,0.334c-0.296,0-0.555-0.072-0.774-0.218
			c-0.22-0.145-0.408-0.373-0.564-0.685l0.666-0.401c0.199,0.368,0.43,0.552,0.69,0.552c0.136,0,0.25-0.04,0.343-0.119
			s0.139-0.17,0.139-0.274c0-0.094-0.035-0.188-0.104-0.282c-0.07-0.095-0.224-0.238-0.462-0.433
			c-0.453-0.37-0.746-0.655-0.878-0.855c-0.133-0.201-0.198-0.401-0.198-0.602c0-0.288,0.109-0.535,0.33-0.742
			c0.22-0.206,0.491-0.31,0.813-0.31c0.208,0,0.405,0.048,0.593,0.145C15.664,19.333,15.867,19.509,16.085,19.763z"/>
		<path fill="#3B5998" d="M16.912,19.197h0.803v1.569h1.389v-1.569h0.801v4.16h-0.801v-1.824h-1.389v1.824h-0.803V19.197z"/>
		<path fill="#3B5998" d="M22.123,19.197h0.803l1.602,4.16h-0.824l-0.326-0.856H21.68l-0.338,0.856H20.52L22.123,19.197z
			 M22.529,20.301l-0.559,1.428h1.113L22.529,20.301z"/>
		<path fill="#3B5998" d="M25.191,19.197h0.84c0.459,0,0.785,0.041,0.98,0.123s0.352,0.219,0.471,0.409s0.178,0.415,0.178,0.676
			c0,0.273-0.066,0.502-0.197,0.686s-0.328,0.323-0.592,0.417l0.986,1.85H26.99l-0.934-1.762h-0.074v1.762h-0.791V19.197z
			 M25.982,20.823h0.248c0.252,0,0.426-0.033,0.521-0.099c0.094-0.066,0.143-0.176,0.143-0.329c0-0.091-0.023-0.17-0.07-0.237
			c-0.049-0.067-0.111-0.115-0.189-0.145c-0.08-0.029-0.225-0.044-0.434-0.044h-0.219V20.823z"/>
		<path fill="#3B5998" d="M28.5,19.197h2.271v0.775h-1.484v0.752h1.484v0.761h-1.484v1.095h1.484v0.777H28.5V19.197z"/>
	</g>
</g>
</svg>
