<?xml version="1.0" encoding="utf-8"?>
<!-- Generator: Adobe Illustrator 16.0.3, SVG Export Plug-In . SVG Version: 6.00 Build 0)  -->
<!DOCTYPE svg PUBLIC "-//W3C//DTD SVG 1.1//EN" "http://www.w3.org/Graphics/SVG/1.1/DTD/svg11.dtd">
<svg version="1.1" id="Warstwa_1" xmlns="http://www.w3.org/2000/svg" xmlns:xlink="http://www.w3.org/1999/xlink" x="0px" y="0px"
	 width="25px" height="25px" viewBox="25 2.833 25 25" enable-background="new 25 2.833 25 25" xml:space="preserve">
<g>
	<g>
		<g>
			<g>
				<path fill="#FDC055" d="M48.186,8.71c-0.787,0.348-1.631,0.584-2.518,0.689c0.905-0.543,1.598-1.402,1.927-2.422
					c-0.851,0.5-1.787,0.865-2.786,1.063c-0.799-0.854-1.938-1.387-3.199-1.387c-2.422,0-4.384,1.965-4.384,4.385
					c0,0.342,0.039,0.678,0.114,0.998c-3.643-0.184-6.873-1.928-9.035-4.58c-0.378,0.646-0.592,1.398-0.592,2.203
					c0,1.521,0.773,2.863,1.948,3.648c-0.718-0.025-1.394-0.221-1.986-0.551v0.055c0,2.123,1.513,3.895,3.517,4.299
					c-0.368,0.1-0.754,0.154-1.155,0.154c-0.282,0-0.558-0.029-0.825-0.082c0.559,1.742,2.177,3.01,4.094,3.043
					c-1.499,1.176-3.391,1.873-5.443,1.873c-0.354,0-0.703-0.02-1.047-0.057c1.941,1.244,4.244,1.971,6.721,1.971
					c8.063,0,12.472-6.678,12.472-12.471l-0.016-0.568C46.854,10.36,47.599,9.587,48.186,8.71z"/>
			</g>
		</g>
	</g>
</g>
</svg>
