<?xml version="1.0" encoding="utf-8"?>
<!-- Generator: Adobe Illustrator 16.0.3, SVG Export Plug-In . SVG Version: 6.00 Build 0)  -->
<!DOCTYPE svg PUBLIC "-//W3C//DTD SVG 1.1//EN" "http://www.w3.org/Graphics/SVG/1.1/DTD/svg11.dtd">
<svg version="1.1" id="Warstwa_1" xmlns="http://www.w3.org/2000/svg" xmlns:xlink="http://www.w3.org/1999/xlink" x="0px" y="0px"
	 width="35px" height="35px" viewBox="0 0 35 35" enable-background="new 0 0 35 35" xml:space="preserve">
<rect fill="#47C7FA" width="35" height="35"/>
<path fill="#FFFFFF" d="M24.453,13.072c-0.916,0.319-1.045,0.276-0.593-0.202c0.335-0.341,0.733-0.958,0.733-1.139
	c0-0.032-0.162,0.021-0.346,0.117c-0.193,0.107-0.625,0.266-0.949,0.362l-0.582,0.18L22.19,12.04
	c-0.292-0.192-0.702-0.404-0.917-0.468c-0.55-0.149-1.391-0.128-1.887,0.043c-1.348,0.478-2.199,1.713-2.103,3.065l0.032,0.521
	l-0.538-0.063c-1.963-0.245-3.677-1.075-5.132-2.469l-0.711-0.692l-0.184,0.511c-0.388,1.139-0.141,2.342,0.669,3.151
	c0.431,0.447,0.333,0.51-0.41,0.244c-0.259-0.085-0.485-0.149-0.507-0.117c-0.075,0.074,0.183,1.042,0.388,1.426
	c0.28,0.531,0.852,1.053,1.478,1.361l0.528,0.244l-0.625,0.011c-0.604,0-0.626,0.011-0.562,0.235
	c0.216,0.69,1.067,1.426,2.017,1.745l0.668,0.224l-0.582,0.34c-0.862,0.49-1.876,0.768-2.89,0.789
	c-0.484,0.01-0.884,0.053-0.884,0.084c0,0.107,1.315,0.703,2.081,0.937c2.296,0.692,5.023,0.394,7.072-0.787
	c1.455-0.841,2.91-2.512,3.59-4.13c0.365-0.861,0.732-2.437,0.732-3.192c0-0.491,0.031-0.554,0.636-1.14
	c0.355-0.34,0.69-0.712,0.755-0.819C25.014,12.892,25.004,12.892,24.453,13.072z"/>
</svg>
